<?xml version="1.0" ?><!DOCTYPE svg  PUBLIC '-//W3C//DTD SVG 1.1//EN'  'http://www.w3.org/Graphics/SVG/1.1/DTD/svg11.dtd'><svg enable-background="new 0 0 512 512" height="512px" id="Layer_1" version="1.1" viewBox="0 0 512 512" width="512px" xml:space="preserve" xmlns="http://www.w3.org/2000/svg" xmlns:xlink="http://www.w3.org/1999/xlink"><g><g opacity="0.12"><g><rect fill="none" height="127.052" width="407.444" x="65.555" y="382.948"/><path d="M65.555,446.465c0,35.098,91.202,63.535,203.723,63.535c112.515,0,203.722-28.438,203.722-63.535     c0-35.079-91.207-63.526-203.722-63.526C156.757,382.938,65.555,411.386,65.555,446.465" fill="#231F20"/></g></g><path d="M420.996,379.911c0,0,16.016,18.848,4.717,47.11c-11.304,28.271-73.506,15.088-75.386,0   c0,0-49.952,8.486-36.758-33.927c0,0,5.654-9.414,12.246-13.184H420.996z" fill="#989897"/><path d="M290.957,422.314c0,0,26.377,26.377,0,53.711c-26.387,27.334-92.359,11.309-86.71-11.309   c0,0-70.674,13.203-58.428-32.979c12.251-46.173,26.514-34.874,26.514-34.874L290.957,422.314z" fill="#989897"/><path d="M414.404,308.28c0,0-7.544,36.748,6.592,71.621c0,0-12.246,32.988-58.423,11.318   c0,0-34.868,9.414-36.758-11.318v-26.455C325.815,353.446,379.536,304.511,414.404,308.28" fill="#F3CBA2"/><path d="M292.836,361.054c0,0-6.596,28.271-1.879,61.261c0,0-44.303,37.686-75.401,0c0,0-46.27,8.994-48.105-26.593   c0,0,17.954-22.412,24.556-53.516L292.836,361.054z" fill="#F3CBA2"/><path d="M420.996,291.327c0,0,25.454,35.801,44.293,0c0,0,40.522,1.875,20.732-28.271   c0,0,30.688-14.141,5.449-30.157c0,0,4.922-35.821-19.585-14.141c0,0,4.717-27.325-17.905-28.282L420.996,291.327z" fill="#D0D2D3"/><path d="M230.141,358.231c0,0,19.346,49.941,52.33,5.664c0,0,46.172,39.199,53.721-10.547   c0,0,55.596,18.066,55.596-35.645c0,0,54.658,8.486,43.345-45.234c0,0,50.895-14.131,20.738-55.596c0,0,33.916-29.209-1.885-45.245   c0,0,32.041-44.277-14.137-52.764c0,0,32.979-61.255-41.465-55.596c0,0-9.526-49.004-48.105-25.44c0,0-11.265-42.412-52.735-12.261   c0,0-38.686-55.596-67.402-2.827c0,0-59.819-22.612-49.443,34.869c0,0-68.794-14.136-46.177,55.601l46.177,213.917   C180.697,327.128,187.235,378.017,230.141,358.231" fill="#F1F1F2"/><path d="M188.236,156.561c0,0,33.916-60.312,94.238-39.58c0,0,15.074,65.029-64.097,81.992   c0,0,66.919,144.19-41.45,160.206c0,0-38.638,60.304-84.815,20.732c0,0-45.235,37.687-71.622-37.705   C-5.9,266.825,22.371,254.569,49.7,208.397c0,0-48.999-14.327-35.815-95.748c0,0,51.841-3.203,75.396,25.063L188.236,156.561z" fill="#F3CBA2"/><path d="M61.009,326.19   c0,0,26.938,39.521,68.941,0" fill="none" stroke="#C8A988" stroke-linecap="round" stroke-miterlimit="10" stroke-width="4.7475"/><path d="M158.075,326.19   c0,0,26.387-1.895,26.387-29.219" fill="none" stroke="#C8A988" stroke-linecap="round" stroke-miterlimit="10" stroke-width="4.7475"/><path d="M89.281,343.759   c0,0-8.106,28.525,2.832,36.143" fill="none" stroke="#C8A988" stroke-linecap="round" stroke-miterlimit="10" stroke-width="4.7475"/><path d="M178.275,315.937   c0,0,12.036,27.48-1.353,43.242" fill="none" stroke="#C8A988" stroke-linecap="round" stroke-miterlimit="10" stroke-width="4.7475"/><path d="M70.433,231.014c0,9.082-4.209,16.436-9.424,16.436c-5.2,0-9.424-7.354-9.424-16.436   s4.224-16.445,9.424-16.445C66.224,214.569,70.433,221.932,70.433,231.014" fill="#434445"/><path d="M167.504,231.014c0,9.082-4.209,16.436-9.424,16.436c-5.2,0-9.429-7.354-9.429-16.436   s4.229-16.445,9.429-16.445C163.295,214.569,167.504,221.932,167.504,231.014" fill="#434445"/><path d="M201.42,191.111c0,0-10.835-64.707,67.852-59.053C269.271,132.059,270.215,181.824,201.42,191.111" fill="#F6B5CE"/><path d="M31.8,135.359c0,0,47.451-14.6,54.595,47.598C86.395,182.957,36.043,201.326,31.8,135.359" fill="#F6B5CE"/><path d="M95.487,112.537c0,0,15.918-39.375,48.901-6.865c0,0,46.67-31.094,45.728,15.547   c0,0,51.011,14.795,6.123,42.412c0,0,15.928,48.057-28.779,31.094c0,0-14.565,37.413-45.196,3.633c0,0-36.417,30.293-35.87-19.17   c0,0-44.717-2.91-11.963-30.43C74.432,148.758,44.666,105.267,95.487,112.537" fill="#D0D2D3"/></g></svg>